<svg width="75" height="75" viewBox="0 0 75 75" fill="none" xmlns="http://www.w3.org/2000/svg">
<path d="M63.227 10.8479C56.2316 3.85248 46.9306 0 37.0375 0C27.1444 0 17.8434 3.85248 10.8479 10.8479C3.85248 17.8434 0 27.1444 0 37.0375C0 46.9306 3.85262 56.2314 10.8479 63.227C17.8432 70.2226 27.1444 74.075 37.0375 74.075C46.9306 74.075 56.2316 70.2225 63.227 63.227C70.2225 56.2316 74.075 46.9306 74.075 37.0375C74.075 27.1444 70.2224 17.8435 63.227 10.8479Z" fill="#33CC95"/>
<path d="M38.0958 14.815V61.3764" stroke="white" strokeWidth="2" strokeLinecap="round" strokeLinejoin="round"/>
<path d="M48.678 23.2807H32.8048C30.8402 23.2807 28.9561 24.0611 27.5669 25.4503C26.1778 26.8395 25.3973 28.7236 25.3973 30.6882C25.3973 32.6528 26.1778 34.5369 27.5669 35.9261C28.9561 37.3153 30.8402 38.0957 32.8048 38.0957H43.387C45.3516 38.0957 47.2357 38.8761 48.6249 40.2653C50.014 41.6545 50.7945 43.5386 50.7945 45.5032C50.7945 47.4678 50.014 49.3519 48.6249 50.7411C47.2357 52.1303 45.3516 52.9107 43.387 52.9107H25.3973" stroke="white" strokeWidth="2" strokeLinecap="round" strokeLinejoin="round"/>
</svg>
